PathFileType	4	(x/y/z)	S04_P20_T04.trc
DataRate	CameraRate	NumFrames	NumMarkers	Units	OrigDataRate	OrigDataStartFrame	OrigNumFrames
240	240	5	51	mm	240	269	358
Frame#	Time	Sternum			R.Acromium			L.Acromium			Top.Head			R.ASIS			L.ASIS			R.PSIS			L.PSIS			R.Great.Tro			L.Great.Tro			R.Iliac.Crest			L.Iliac.Crest			V.Sacral			R.Thigh.Upper.Post			R.Thigh.Lower.Ant			R.Thigh.Lower.Post			R.Thigh.Upper.Ant			R.Knee.Lat			R.Knee.Med			R.Shank.Upper.Post			R.Shank.Lower.Ant			R.Shank.Lower.Post			R.Shank.Upper.Ant			R.Ankle.Lat			R.Ankle.Med			R.Heel.Upper			R.Heel.Med			R.Heel.Lat			R.Toe.Lat			R.Toe.Med			R.Toe.Tip			L.Thigh.Upper.Post			L.Thigh.Lower.Ant			L.Thigh.Lower.Post			L.Thigh.Upper.Ant			L.Knee.Lat			L.Knee.Med			L.Shank.Upper.Post			L.Shank.Lower.Ant			L.Shank.Lower.Post			L.Shank.Upper.Ant			L.Ankle.Lat			L.Ankle.Med			L.Heel.Upper			L.Heel.Med			L.Heel.Lat			L.Toe.Lat			L.Toe.Med			L.Toe.Tip			Cervical.Spine			Back			
		X1	Y1	Z1	X2	Y2	Z2	X3	Y3	Z3	X4	Y4	Z4	X5	Y5	Z5	X6	Y6	Z6	X7	Y7	Z7	X8	Y8	Z8	X9	Y9	Z9	X10	Y10	Z10	X11	Y11	Z11	X12	Y12	Z12	X13	Y13	Z13	X14	Y14	Z14	X15	Y15	Z15	X16	Y16	Z16	X17	Y17	Z17	X18	Y18	Z18	X19	Y19	Z19	X20	Y20	Z20	X21	Y21	Z21	X22	Y22	Z22	X23	Y23	Z23	X24	Y24	Z24	X25	Y25	Z25	X26	Y26	Z26	X27	Y27	Z27	X28	Y28	Z28	X29	Y29	Z29	X30	Y30	Z30	X31	Y31	Z31	X32	Y32	Z32	X33	Y33	Z33	X34	Y34	Z34	X35	Y35	Z35	X36	Y36	Z36	X37	Y37	Z37	X38	Y38	Z38	X39	Y39	Z39	X40	Y40	Z40	X41	Y41	Z41	X42	Y42	Z42	X43	Y43	Z43	X44	Y44	Z44	X45	Y45	Z45	X46	Y46	Z46	X47	Y47	Z47	X48	Y48	Z48	X49	Y49	Z49	X50	Y50	Z50	X51	Y51	Z51	

269	1.1167	97.086	1266.8	244.45	-1.6675	1500	427.99	-39.257	1484.3	79.693	106.62	1808.3	231.8	59.266	983.94	386.52	55.955	1012.9	138.66	-155.61	1016.8	289.42	-150.28	1025.6	208.35	-28.603	900.71	447.02	-51.015	922.11	70.314	-27.471	1076.8	430.86	-50.045	1087.9	94.133	-172.76	978.92	247.01	7.7913	642.83	444.39	97.71	572.16	421.55	22.383	553.72	431.32	88.35	681.6	438.26	42.341	487.41	425.06	39.661	485.58	290.08	-159.78	375.88	410.97	-165.72	272.36	372.98	-209.22	327.04	395.5	-118.45	323.3	396.73	-285.06	242.67	373.78	-249.1	229.74	289.06	-344.1	264.17	309.4	-354.97	236.25	277.02	-370.05	240.17	341.18	-268.92	112.91	409.1	-223.93	85.017	299.97	-173.9	55.615	356.54	-8.1877	681.68	82.404	95.083	610.58	89.125	23.315	600.11	97.346	58.805	692.22	71.596	87.342	519.48	105.92	85.92	509.2	229.18	18.048	332.17	103.07	93.746	251.13	111.25	29.149	255.31	112.09	83.113	326.58	101.95	81.135	98.487	127.97	84.358	111.23	222.26	7.1118	68.384	175.55	14.057	45.391	211.6	10.804	38.712	149.62	194.79	43.293	112	225.6	58.655	226.17	281.89	71.484	176.93	-63.944	1554.3	262.15	-162.54	1295.3	249.86
270	1.1208	102.36	1267.4	244.51	3.5134	1500.8	427.72	-33.291	1484.9	79.327	112.12	1809.1	231.35	64.272	984.7	386.21	60.989	1013.6	138.33	-150.66	1017.4	289.09	-145.25	1026.3	208.02	-23.338	901.47	446.74	-46.201	922.79	70.009	-22.64	1077.5	430.53	-44.691	1088.7	93.797	-167.8	979.6	246.63	15.855	644	443.97	106.56	574.3	421.23	31.411	555.04	430.85	95.998	683.62	438	52.153	489.14	424.66	49.639	487.31	289.63	-149.34	376.77	410.42	-154.71	273.13	372.87	-198.52	327.65	395.08	-107.73	324.34	396.47	-273.83	242.89	373.35	-237.76	229.72	288.78	-333.06	263.35	308.64	-343.61	235.02	276.53	-358.8	239.42	340.66	-256.6	113.82	409.81	-211.28	85.25	300.97	-161.07	56.631	357.89	-4.6333	682.26	82.289	98.2	610.53	89.089	26.376	600.51	97.285	62.426	692.37	71.508	89.848	519.41	105.92	88.288	509.21	229.2	19.419	332.47	103.3	94.692	251.06	111.33	30.147	255.55	112.31	84.444	326.55	102.04	81.28	98.584	128.12	84.542	111.22	222.42	7.1349	68.45	175.62	14.075	45.402	211.63	10.84	38.819	149.66	194.84	43.285	111.97	225.68	58.341	226.24	281.97	71.13	177.02	-58.387	1555.1	261.69	-157.24	1296.3	249.27
271	1.125	107.62	1268.1	244.58	8.6749	1501.6	427.47	-27.335	1485.6	78.976	117.64	1809.8	230.93	69.273	985.51	385.91	66.017	1014.3	138	-145.71	1018.1	288.77	-140.22	1027	207.71	-18.081	902.29	446.48	-41.403	923.46	69.725	-17.802	1078.3	430.21	-39.348	1089.5	93.471	-162.83	980.3	246.27	23.848	645.22	443.54	115.31	576.5	420.86	40.346	556.43	430.36	103.57	685.68	437.72	61.864	490.95	424.24	59.475	489.12	289.16	-138.85	377.43	409.88	-143.47	273.65	372.75	-187.67	327.96	394.66	-96.876	325.22	396.21	-262.32	242.67	372.96	-226.17	229.36	288.49	-321.81	262.01	307.97	-332	233.27	276.12	-347.26	238.09	340.22	-243.76	114.32	410.44	-198.13	85.237	301.86	-147.66	57.512	359.05	-1.1348	682.85	82.2	101.25	610.48	89.082	29.365	600.9	97.244	65.994	692.52	71.446	92.261	519.34	105.94	90.578	509.2	229.25	20.714	332.77	103.55	95.58	250.99	111.42	31.091	255.79	112.55	85.699	326.53	102.14	81.415	98.685	128.28	84.714	111.2	222.57	7.1516	68.515	175.71	14.086	45.411	211.66	10.874	38.929	149.71	194.88	43.289	111.96	225.76	58.042	226.31	282.04	70.803	177.11	-52.837	1555.9	261.26	-151.95	1297.2	248.68
272	1.1292	112.86	1268.7	244.65	13.818	1502.5	427.22	-21.392	1486.3	78.642	123.17	1810.6	230.54	74.272	986.38	385.62	71.044	1015	137.67	-140.75	1018.8	288.47	-135.19	1027.7	207.41	-12.828	903.17	446.25	-36.618	924.13	69.463	-12.955	1079.1	429.89	-34.015	1090.3	93.154	-157.86	981.02	245.94	31.771	646.51	443.11	123.96	578.75	420.46	49.186	557.89	429.87	111.08	687.78	437.42	71.475	492.81	423.8	69.164	491.01	288.68	-128.31	377.84	409.37	-132.02	273.95	372.62	-176.68	327.95	394.26	-85.893	325.94	395.95	-250.54	242.01	372.61	-214.34	228.69	288.21	-310.34	260.17	307.38	-320.16	231.04	275.8	-335.44	236.2	339.87	-230.42	114.41	411	-184.51	84.985	302.61	-133.71	58.247	360.02	2.3115	683.46	82.133	104.22	610.41	89.098	32.288	601.3	97.218	69.513	692.66	71.408	94.586	519.25	105.98	92.799	509.19	229.31	21.938	333.05	103.82	96.418	250.92	111.52	31.989	256.01	112.81	86.888	326.51	102.25	81.54	98.789	128.45	84.876	111.19	222.73	7.163	68.581	175.8	14.091	45.421	211.7	10.905	39.041	149.76	194.91	43.301	111.94	225.83	57.757	226.38	282.1	70.499	177.19	-47.294	1556.7	260.84	-146.67	1298.2	248.09
273	1.1333	118.09	1269.4	244.73	18.943	1503.3	426.99	-15.461	1487.1	78.322	128.72	1811.3	230.18	79.27	987.29	385.34	76.071	1015.7	137.35	-135.79	1019.5	288.18	-130.16	1028.4	207.12	-7.5763	904.1	446.03	-31.845	924.8	69.223	-8.0942	1080	429.58	-28.692	1091.1	92.848	-152.88	981.76	245.63	39.627	647.84	442.68	132.51	581.03	420.02	57.932	559.4	429.37	118.52	689.91	437.1	80.987	494.71	423.33	78.703	492.96	288.18	-117.7	378.02	408.89	-120.36	274.01	372.47	-165.56	327.63	393.87	-74.786	326.49	395.69	-238.48	240.94	372.3	-202.27	227.71	287.93	-298.66	257.86	306.89	-308.07	228.34	275.57	-323.34	233.78	339.6	-216.6	114.12	411.49	-170.45	84.504	303.23	-119.24	58.832	360.79	5.7093	684.1	82.082	107.14	610.35	89.133	35.147	601.7	97.201	72.987	692.8	71.39	96.828	519.17	106.02	94.963	509.17	229.39	23.101	333.33	104.08	97.212	250.85	111.62	32.845	256.24	113.06	88.015	326.49	102.37	81.658	98.895	128.62	85.029	111.17	222.88	7.1698	68.646	175.9	14.089	45.431	211.73	10.933	39.155	149.81	194.95	43.319	111.93	225.89	57.482	226.45	282.16	70.214	177.28	-41.759	1557.5	260.44	-141.39	1299.1	247.5
